<svg width="520" height="339" viewBox="0 0 520 339" fill="none" xmlns="http://www.w3.org/2000/svg">
<path d="M368.646 36.2924C378.392 36.2924 386.292 28.3919 386.292 18.6462C386.292 8.90048 378.392 1 368.646 1C358.9 1 351 8.90048 351 18.6462C351 28.3919 358.9 36.2924 368.646 36.2924Z" fill="#C4C6CF"/>
<path d="M448.786 307.562C475.015 287.584 487.543 254.013 479.7 221.988C479.505 221.193 479.3 220.399 479.083 219.607C473.884 200.597 461.02 182.531 442.272 176.456C426.53 171.356 409.347 175.278 392.924 173.25C360.685 169.269 335.69 143.184 318.104 115.872C300.517 88.5609 287.001 57.9896 263.632 35.4263C225.113 -1.7654 162.277 -9.7728 114.518 14.4362C66.7595 38.6453 36.3375 92.3552 37.635 145.884C38.9324 199.412 70.71 250.589 116.859 277.742C133.812 287.717 153.42 294.783 172.934 292.311C189.866 290.165 205.251 281.067 222.103 278.366C248.599 274.12 274.926 286.099 297.843 300.059C320.76 314.019 342.896 330.565 368.937 337.037C394.224 343.321 425.552 325.259 448.786 307.562Z" fill="#C4C6CF"/>
<path d="M0 214.018C5.7413 220.821 11.9512 227.214 18.5842 233.15L501.416 233.811C508.049 227.875 514.259 221.481 520 214.679L0 214.018Z" fill="#343F54"/>
<path d="M327.424 152.754V209.394C327.424 210.116 327.711 210.808 328.222 211.319C328.732 211.829 329.424 212.116 330.146 212.117H414.082C414.804 212.116 415.496 211.829 416.006 211.319C416.517 210.808 416.804 210.116 416.804 209.394V152.754C416.802 152.032 416.515 151.341 416.005 150.832C415.494 150.322 414.803 150.035 414.082 150.034H330.146C329.425 150.035 328.733 150.322 328.223 150.832C327.713 151.341 327.426 152.032 327.424 152.754V152.754Z" fill="#212D40"/>
<path d="M329.393 153.458V208.696C329.393 209.081 329.547 209.451 329.82 209.724C330.092 209.996 330.462 210.15 330.848 210.151H413.383C413.769 210.15 414.138 209.996 414.411 209.724C414.684 209.451 414.837 209.081 414.838 208.696V153.458C414.838 153.072 414.685 152.702 414.412 152.429C414.139 152.155 413.769 152.001 413.383 152H330.848C330.462 152.001 330.092 152.155 329.819 152.429C329.546 152.702 329.393 153.072 329.393 153.458Z" fill="#273246"/>
<path d="M325.668 220.441C325.822 220.634 326.017 220.789 326.24 220.896C326.462 221.002 326.706 221.057 326.953 221.055H416.828C417.074 221.055 417.317 221 417.538 220.894C417.76 220.788 417.956 220.634 418.11 220.443C418.265 220.253 418.376 220.03 418.433 219.791C418.491 219.552 418.495 219.303 418.445 219.062L417.05 212.436C416.992 212.165 416.867 211.914 416.687 211.704C416.508 211.494 416.278 211.333 416.02 211.234C415.833 211.161 415.634 211.123 415.433 211.123H328.342C328.141 211.123 327.942 211.161 327.755 211.234C327.497 211.333 327.268 211.494 327.088 211.704C326.908 211.914 326.783 212.165 326.726 212.436L325.331 219.062C325.281 219.303 325.285 219.551 325.344 219.79C325.402 220.028 325.513 220.251 325.668 220.441V220.441Z" fill="#212D40"/>
<path d="M412.349 213.978H414.472C414.65 213.978 414.795 213.833 414.795 213.655V212.64C414.795 212.461 414.65 212.317 414.472 212.317H412.349C412.171 212.317 412.027 212.461 412.027 212.64V213.655C412.027 213.833 412.171 213.978 412.349 213.978Z" fill="#485265"/>
<path d="M406.813 213.978H408.936C409.114 213.978 409.259 213.833 409.259 213.655V212.64C409.259 212.461 409.114 212.317 408.936 212.317H406.813C406.635 212.317 406.49 212.461 406.49 212.64V213.655C406.49 213.833 406.635 213.978 406.813 213.978Z" fill="#485265"/>
<path d="M401.277 213.978H403.4C403.578 213.978 403.722 213.833 403.722 213.655V212.64C403.722 212.461 403.578 212.317 403.4 212.317H401.277C401.099 212.317 400.954 212.461 400.954 212.64V213.655C400.954 213.833 401.099 213.978 401.277 213.978Z" fill="#485265"/>
<path d="M395.741 213.978H397.863C398.042 213.978 398.186 213.833 398.186 213.655V212.64C398.186 212.461 398.042 212.317 397.863 212.317H395.741C395.562 212.317 395.418 212.461 395.418 212.64V213.655C395.418 213.833 395.562 213.978 395.741 213.978Z" fill="#485265"/>
<path d="M390.204 213.978H392.327C392.505 213.978 392.65 213.833 392.65 213.655V212.64C392.65 212.461 392.505 212.317 392.327 212.317H390.204C390.026 212.317 389.882 212.461 389.882 212.64V213.655C389.882 213.833 390.026 213.978 390.204 213.978Z" fill="#485265"/>
<path d="M384.668 213.978H386.791C386.969 213.978 387.114 213.833 387.114 213.655V212.64C387.114 212.461 386.969 212.317 386.791 212.317H384.668C384.49 212.317 384.345 212.461 384.345 212.64V213.655C384.345 213.833 384.49 213.978 384.668 213.978Z" fill="#485265"/>
<path d="M379.132 213.978H381.255C381.433 213.978 381.577 213.833 381.577 213.655V212.64C381.577 212.461 381.433 212.317 381.255 212.317H379.132C378.954 212.317 378.809 212.461 378.809 212.64V213.655C378.809 213.833 378.954 213.978 379.132 213.978Z" fill="#485265"/>
<path d="M373.596 213.978H375.718C375.897 213.978 376.041 213.833 376.041 213.655V212.64C376.041 212.461 375.897 212.317 375.718 212.317H373.596C373.417 212.317 373.273 212.461 373.273 212.64V213.655C373.273 213.833 373.417 213.978 373.596 213.978Z" fill="#485265"/>
<path d="M368.059 213.978H370.182C370.36 213.978 370.505 213.833 370.505 213.655V212.64C370.505 212.461 370.36 212.317 370.182 212.317H368.059C367.881 212.317 367.737 212.461 367.737 212.64V213.655C367.737 213.833 367.881 213.978 368.059 213.978Z" fill="#485265"/>
<path d="M362.523 213.978H364.646C364.824 213.978 364.969 213.833 364.969 213.655V212.64C364.969 212.461 364.824 212.317 364.646 212.317H362.523C362.345 212.317 362.2 212.461 362.2 212.64V213.655C362.2 213.833 362.345 213.978 362.523 213.978Z" fill="#485265"/>
<path d="M356.987 213.978H359.11C359.288 213.978 359.432 213.833 359.432 213.655V212.64C359.432 212.461 359.288 212.317 359.11 212.317H356.987C356.809 212.317 356.664 212.461 356.664 212.64V213.655C356.664 213.833 356.809 213.978 356.987 213.978Z" fill="#485265"/>
<path d="M351.45 213.978H353.573C353.752 213.978 353.896 213.833 353.896 213.655V212.64C353.896 212.461 353.752 212.317 353.573 212.317H351.45C351.272 212.317 351.128 212.461 351.128 212.64V213.655C351.128 213.833 351.272 213.978 351.45 213.978Z" fill="#485265"/>
<path d="M345.914 213.978H348.037C348.215 213.978 348.36 213.833 348.36 213.655V212.64C348.36 212.461 348.215 212.317 348.037 212.317H345.914C345.736 212.317 345.592 212.461 345.592 212.64V213.655C345.592 213.833 345.736 213.978 345.914 213.978Z" fill="#485265"/>
<path d="M340.378 213.978H342.501C342.679 213.978 342.823 213.833 342.823 213.655V212.64C342.823 212.461 342.679 212.317 342.501 212.317H340.378C340.2 212.317 340.055 212.461 340.055 212.64V213.655C340.055 213.833 340.2 213.978 340.378 213.978Z" fill="#485265"/>
<path d="M334.842 213.978H336.965C337.143 213.978 337.287 213.833 337.287 213.655V212.64C337.287 212.461 337.143 212.317 336.965 212.317H334.842C334.664 212.317 334.519 212.461 334.519 212.64V213.655C334.519 213.833 334.664 213.978 334.842 213.978Z" fill="#485265"/>
<path d="M329.306 213.978H331.428C331.607 213.978 331.751 213.833 331.751 213.655V212.64C331.751 212.461 331.607 212.317 331.428 212.317H329.306C329.127 212.317 328.983 212.461 328.983 212.64V213.655C328.983 213.833 329.127 213.978 329.306 213.978Z" fill="#485265"/>
<path d="M412.415 216.746H414.537C414.716 216.746 414.86 216.601 414.86 216.423V215.408C414.86 215.229 414.716 215.085 414.537 215.085H412.415C412.236 215.085 412.092 215.229 412.092 215.408V216.423C412.092 216.601 412.236 216.746 412.415 216.746Z" fill="#485265"/>
<path d="M406.878 216.746H409.001C409.18 216.746 409.324 216.601 409.324 216.423V215.408C409.324 215.229 409.18 215.085 409.001 215.085H406.878C406.7 215.085 406.556 215.229 406.556 215.408V216.423C406.556 216.601 406.7 216.746 406.878 216.746Z" fill="#485265"/>
<path d="M401.342 216.746H403.465C403.643 216.746 403.788 216.601 403.788 216.423V215.408C403.788 215.229 403.643 215.085 403.465 215.085H401.342C401.164 215.085 401.02 215.229 401.02 215.408V216.423C401.02 216.601 401.164 216.746 401.342 216.746Z" fill="#485265"/>
<path d="M395.806 216.746H397.929C398.107 216.746 398.251 216.601 398.251 216.423V215.408C398.251 215.229 398.107 215.085 397.929 215.085H395.806C395.628 215.085 395.483 215.229 395.483 215.408V216.423C395.483 216.601 395.628 216.746 395.806 216.746Z" fill="#485265"/>
<path d="M390.27 216.746H392.392C392.571 216.746 392.715 216.601 392.715 216.423V215.408C392.715 215.229 392.571 215.085 392.392 215.085H390.27C390.091 215.085 389.947 215.229 389.947 215.408V216.423C389.947 216.601 390.091 216.746 390.27 216.746Z" fill="#485265"/>
<path d="M384.733 216.746H386.856C387.035 216.746 387.179 216.601 387.179 216.423V215.408C387.179 215.229 387.035 215.085 386.856 215.085H384.733C384.555 215.085 384.411 215.229 384.411 215.408V216.423C384.411 216.601 384.555 216.746 384.733 216.746Z" fill="#485265"/>
<path d="M379.197 216.746H381.32C381.498 216.746 381.643 216.601 381.643 216.423V215.408C381.643 215.229 381.498 215.085 381.32 215.085H379.197C379.019 215.085 378.875 215.229 378.875 215.408V216.423C378.875 216.601 379.019 216.746 379.197 216.746Z" fill="#485265"/>
<path d="M373.661 216.746H375.784C375.962 216.746 376.106 216.601 376.106 216.423V215.408C376.106 215.229 375.962 215.085 375.784 215.085H373.661C373.483 215.085 373.338 215.229 373.338 215.408V216.423C373.338 216.601 373.483 216.746 373.661 216.746Z" fill="#485265"/>
<path d="M368.125 216.746H370.247C370.426 216.746 370.57 216.601 370.57 216.423V215.408C370.57 215.229 370.426 215.085 370.247 215.085H368.125C367.946 215.085 367.802 215.229 367.802 215.408V216.423C367.802 216.601 367.946 216.746 368.125 216.746Z" fill="#485265"/>
<path d="M362.588 216.746H364.711C364.889 216.746 365.034 216.601 365.034 216.423V215.408C365.034 215.229 364.889 215.085 364.711 215.085H362.588C362.41 215.085 362.266 215.229 362.266 215.408V216.423C362.266 216.601 362.41 216.746 362.588 216.746Z" fill="#485265"/>
<path d="M357.052 216.746H359.175C359.353 216.746 359.498 216.601 359.498 216.423V215.408C359.498 215.229 359.353 215.085 359.175 215.085H357.052C356.874 215.085 356.729 215.229 356.729 215.408V216.423C356.729 216.601 356.874 216.746 357.052 216.746Z" fill="#485265"/>
<path d="M351.516 216.746H353.639C353.817 216.746 353.961 216.601 353.961 216.423V215.408C353.961 215.229 353.817 215.085 353.639 215.085H351.516C351.338 215.085 351.193 215.229 351.193 215.408V216.423C351.193 216.601 351.338 216.746 351.516 216.746Z" fill="#485265"/>
<path d="M345.98 216.746H348.103C348.281 216.746 348.425 216.601 348.425 216.423V215.408C348.425 215.229 348.281 215.085 348.103 215.085H345.98C345.802 215.085 345.657 215.229 345.657 215.408V216.423C345.657 216.601 345.802 216.746 345.98 216.746Z" fill="#485265"/>
<path d="M340.443 216.746H342.566C342.744 216.746 342.889 216.601 342.889 216.423V215.408C342.889 215.229 342.744 215.085 342.566 215.085H340.443C340.265 215.085 340.121 215.229 340.121 215.408V216.423C340.121 216.601 340.265 216.746 340.443 216.746Z" fill="#485265"/>
<path d="M334.907 216.746H337.03C337.208 216.746 337.353 216.601 337.353 216.423V215.408C337.353 215.229 337.208 215.085 337.03 215.085H334.907C334.729 215.085 334.585 215.229 334.585 215.408V216.423C334.585 216.601 334.729 216.746 334.907 216.746Z" fill="#485265"/>
<path d="M329.371 216.746H331.494C331.672 216.746 331.816 216.601 331.816 216.423V215.408C331.816 215.229 331.672 215.085 331.494 215.085H329.371C329.193 215.085 329.048 215.229 329.048 215.408V216.423C329.048 216.601 329.193 216.746 329.371 216.746Z" fill="#485265"/>
<path d="M366.464 220.068H387.964C388.142 220.068 388.286 219.923 388.286 219.745V218.729C388.286 218.551 388.142 218.407 387.964 218.407H366.464C366.286 218.407 366.141 218.551 366.141 218.729V219.745C366.141 219.923 366.286 220.068 366.464 220.068Z" fill="#485265"/>
<path d="M343.686 164.085H341.806C341.236 164.085 340.774 164.547 340.774 165.117C340.774 165.687 341.236 166.148 341.806 166.148H343.686C344.255 166.148 344.717 165.687 344.717 165.117C344.717 164.547 344.255 164.085 343.686 164.085Z" fill="white"/>
<path d="M365.18 164.085H363.3C362.73 164.085 362.269 164.547 362.269 165.117C362.269 165.687 362.73 166.148 363.3 166.148H365.18C365.749 166.148 366.211 165.687 366.211 165.117C366.211 164.547 365.749 164.085 365.18 164.085Z" fill="white"/>
<path d="M371.27 164.085H369.39C368.82 164.085 368.359 164.547 368.359 165.117C368.359 165.687 368.82 166.148 369.39 166.148H371.27C371.839 166.148 372.301 165.687 372.301 165.117C372.301 164.547 371.839 164.085 371.27 164.085Z" fill="white"/>
<path d="M359.333 163.913H347.653C347.083 163.913 346.621 164.375 346.621 164.945C346.621 165.515 347.083 165.976 347.653 165.976H359.333C359.903 165.976 360.365 165.515 360.365 164.945C360.365 164.375 359.903 163.913 359.333 163.913Z" fill="white"/>
<path d="M387.992 163.913H376.311C375.742 163.913 375.28 164.375 375.28 164.945C375.28 165.515 375.742 165.976 376.311 165.976H387.992C388.562 165.976 389.024 165.515 389.024 164.945C389.024 164.375 388.562 163.913 387.992 163.913Z" fill="white"/>
<path d="M349.417 168.742H347.538C346.968 168.742 346.506 169.204 346.506 169.774C346.506 170.344 346.968 170.806 347.538 170.806H349.417C349.987 170.806 350.449 170.344 350.449 169.774C350.449 169.204 349.987 168.742 349.417 168.742Z" fill="white"/>
<path d="M370.911 168.742H369.032C368.462 168.742 368 169.204 368 169.774C368 170.344 368.462 170.806 369.032 170.806H370.911C371.481 170.806 371.943 170.344 371.943 169.774C371.943 169.204 371.481 168.742 370.911 168.742Z" fill="white"/>
<path d="M377.001 168.742H375.122C374.552 168.742 374.09 169.204 374.09 169.774C374.09 170.344 374.552 170.806 375.122 170.806H377.001C377.571 170.806 378.033 170.344 378.033 169.774C378.033 169.204 377.571 168.742 377.001 168.742Z" fill="white"/>
<path d="M365.065 168.57H353.384C352.815 168.57 352.353 169.032 352.353 169.602C352.353 170.172 352.815 170.634 353.384 170.634H365.065C365.635 170.634 366.097 170.172 366.097 169.602C366.097 169.032 365.635 168.57 365.065 168.57Z" fill="white"/>
<path d="M393.724 168.57H382.043C381.473 168.57 381.011 169.032 381.011 169.602C381.011 170.172 381.473 170.634 382.043 170.634H393.724C394.293 170.634 394.755 170.172 394.755 169.602C394.755 169.032 394.293 168.57 393.724 168.57Z" fill="white"/>
<path d="M355.149 173.399H353.27C352.7 173.399 352.238 173.861 352.238 174.431C352.238 175.001 352.7 175.463 353.27 175.463H355.149C355.719 175.463 356.181 175.001 356.181 174.431C356.181 173.861 355.719 173.399 355.149 173.399Z" fill="white"/>
<path d="M376.643 173.399H374.764C374.194 173.399 373.732 173.861 373.732 174.431C373.732 175.001 374.194 175.463 374.764 175.463H376.643C377.213 175.463 377.675 175.001 377.675 174.431C377.675 173.861 377.213 173.399 376.643 173.399Z" fill="white"/>
<path d="M382.733 173.399H380.854C380.284 173.399 379.822 173.861 379.822 174.431C379.822 175.001 380.284 175.463 380.854 175.463H382.733C383.303 175.463 383.765 175.001 383.765 174.431C383.765 173.861 383.303 173.399 382.733 173.399Z" fill="white"/>
<path d="M370.797 173.227H359.116C358.546 173.227 358.084 173.689 358.084 174.259C358.084 174.829 358.546 175.291 359.116 175.291H370.797C371.366 175.291 371.828 174.829 371.828 174.259C371.828 173.689 371.366 173.227 370.797 173.227Z" fill="white"/>
<path d="M399.455 173.227H387.775C387.205 173.227 386.743 173.689 386.743 174.259C386.743 174.829 387.205 175.291 387.775 175.291H399.455C400.025 175.291 400.487 174.829 400.487 174.259C400.487 173.689 400.025 173.227 399.455 173.227Z" fill="white"/>
<path d="M360.881 178.056H359.001C358.432 178.056 357.97 178.518 357.97 179.088C357.97 179.658 358.432 180.12 359.001 180.12H360.881C361.451 180.12 361.912 179.658 361.912 179.088C361.912 178.518 361.451 178.056 360.881 178.056Z" fill="white"/>
<path d="M382.375 178.056H380.496C379.926 178.056 379.464 178.518 379.464 179.088C379.464 179.658 379.926 180.12 380.496 180.12H382.375C382.945 180.12 383.407 179.658 383.407 179.088C383.407 178.518 382.945 178.056 382.375 178.056Z" fill="white"/>
<path d="M388.465 178.056H386.586C386.016 178.056 385.554 178.518 385.554 179.088C385.554 179.658 386.016 180.12 386.586 180.12H388.465C389.035 180.12 389.497 179.658 389.497 179.088C389.497 178.518 389.035 178.056 388.465 178.056Z" fill="white"/>
<path d="M376.528 177.884H364.848C364.278 177.884 363.816 178.346 363.816 178.916C363.816 179.486 364.278 179.948 364.848 179.948H376.528C377.098 179.948 377.56 179.486 377.56 178.916C377.56 178.346 377.098 177.884 376.528 177.884Z" fill="white"/>
<path d="M365.18 196.575H363.3C362.73 196.575 362.269 197.037 362.269 197.606C362.269 198.176 362.73 198.638 363.3 198.638H365.18C365.749 198.638 366.211 198.176 366.211 197.606C366.211 197.037 365.749 196.575 365.18 196.575Z" fill="white"/>
<path d="M371.27 196.575H369.39C368.82 196.575 368.359 197.037 368.359 197.606C368.359 198.176 368.82 198.638 369.39 198.638H371.27C371.839 198.638 372.301 198.176 372.301 197.606C372.301 197.037 371.839 196.575 371.27 196.575Z" fill="white"/>
<path d="M387.992 196.747H376.311C375.742 196.747 375.28 197.209 375.28 197.778C375.28 198.348 375.742 198.81 376.311 198.81H387.992C388.562 198.81 389.024 198.348 389.024 197.778C389.024 197.209 388.562 196.747 387.992 196.747Z" fill="white"/>
<path d="M343.686 196.575H341.806C341.236 196.575 340.774 197.037 340.774 197.606C340.774 198.176 341.236 198.638 341.806 198.638H343.686C344.255 198.638 344.717 198.176 344.717 197.606C344.717 197.037 344.255 196.575 343.686 196.575Z" fill="white"/>
<path d="M359.333 196.747H347.653C347.083 196.747 346.621 197.209 346.621 197.778C346.621 198.348 347.083 198.81 347.653 198.81H359.333C359.903 198.81 360.365 198.348 360.365 197.778C360.365 197.209 359.903 196.747 359.333 196.747Z" fill="white"/>
<path d="M349.417 191.918H347.538C346.968 191.918 346.506 192.38 346.506 192.949C346.506 193.519 346.968 193.981 347.538 193.981H349.417C349.987 193.981 350.449 193.519 350.449 192.949C350.449 192.38 349.987 191.918 349.417 191.918Z" fill="white"/>
<path d="M370.911 191.918H369.032C368.462 191.918 368 192.38 368 192.949C368 193.519 368.462 193.981 369.032 193.981H370.911C371.481 193.981 371.943 193.519 371.943 192.949C371.943 192.38 371.481 191.918 370.911 191.918Z" fill="white"/>
<path d="M377.001 191.918H375.122C374.552 191.918 374.09 192.38 374.09 192.949C374.09 193.519 374.552 193.981 375.122 193.981H377.001C377.571 193.981 378.033 193.519 378.033 192.949C378.033 192.38 377.571 191.918 377.001 191.918Z" fill="white"/>
<path d="M365.065 192.09H353.384C352.815 192.09 352.353 192.551 352.353 193.121C352.353 193.691 352.815 194.153 353.384 194.153H365.065C365.635 194.153 366.097 193.691 366.097 193.121C366.097 192.551 365.635 192.09 365.065 192.09Z" fill="white"/>
<path d="M355.149 187.261H353.27C352.7 187.261 352.238 187.722 352.238 188.292C352.238 188.862 352.7 189.324 353.27 189.324H355.149C355.719 189.324 356.181 188.862 356.181 188.292C356.181 187.722 355.719 187.261 355.149 187.261Z" fill="white"/>
<path d="M376.643 187.261H374.764C374.194 187.261 373.732 187.722 373.732 188.292C373.732 188.862 374.194 189.324 374.764 189.324H376.643C377.213 189.324 377.675 188.862 377.675 188.292C377.675 187.722 377.213 187.261 376.643 187.261Z" fill="white"/>
<path d="M382.733 187.261H380.854C380.284 187.261 379.822 187.722 379.822 188.292C379.822 188.862 380.284 189.324 380.854 189.324H382.733C383.303 189.324 383.765 188.862 383.765 188.292C383.765 187.722 383.303 187.261 382.733 187.261Z" fill="white"/>
<path d="M370.797 187.433H359.116C358.546 187.433 358.084 187.895 358.084 188.464C358.084 189.034 358.546 189.496 359.116 189.496H370.797C371.366 189.496 371.828 189.034 371.828 188.464C371.828 187.895 371.366 187.433 370.797 187.433Z" fill="white"/>
<path d="M360.881 182.604H359.001C358.432 182.604 357.97 183.065 357.97 183.635C357.97 184.205 358.432 184.667 359.001 184.667H360.881C361.451 184.667 361.912 184.205 361.912 183.635C361.912 183.065 361.451 182.604 360.881 182.604Z" fill="white"/>
<path d="M382.375 182.604H380.496C379.926 182.604 379.464 183.065 379.464 183.635C379.464 184.205 379.926 184.667 380.496 184.667H382.375C382.945 184.667 383.407 184.205 383.407 183.635C383.407 183.065 382.945 182.604 382.375 182.604Z" fill="white"/>
<path d="M388.465 182.604H386.586C386.016 182.604 385.554 183.065 385.554 183.635C385.554 184.205 386.016 184.667 386.586 184.667H388.465C389.035 184.667 389.497 184.205 389.497 183.635C389.497 183.065 389.035 182.604 388.465 182.604Z" fill="white"/>
<path d="M376.528 182.776H364.848C364.278 182.776 363.816 183.237 363.816 183.807C363.816 184.377 364.278 184.839 364.848 184.839H376.528C377.098 184.839 377.56 184.377 377.56 183.807C377.56 183.237 377.098 182.776 376.528 182.776Z" fill="white"/>
<path d="M333.694 251.154L324.871 237.208L352.564 215.132L363.994 202.469C365.479 200.824 367.37 199.597 369.478 198.911C371.585 198.226 373.836 198.105 376.005 198.562C378.173 199.019 380.184 200.037 381.836 201.514C383.488 202.992 384.724 204.877 385.419 206.981C386.449 210.1 386.228 213.497 384.801 216.455C383.374 219.413 380.854 221.701 377.772 222.837L359.698 229.495L333.694 251.154Z" fill="#FFB6B6"/>
<path d="M126.686 150.037V217.818H174.17V150.037C174.171 149.55 174.016 149.075 173.727 148.682C173.438 148.29 173.03 148 172.565 147.856C172.345 147.784 172.115 147.748 171.884 147.75H128.979C128.678 147.75 128.38 147.809 128.102 147.923C127.824 148.038 127.571 148.206 127.358 148.418C127.145 148.631 126.976 148.883 126.861 149.161C126.746 149.439 126.686 149.736 126.686 150.037ZM145.217 173.327C145.229 171.991 145.769 170.713 146.718 169.773C147.667 168.832 148.95 168.305 150.286 168.305C151.622 168.305 152.905 168.832 153.854 169.773C154.803 170.713 155.343 171.991 155.355 173.327V181.191C155.348 182.531 154.811 183.814 153.861 184.759C152.911 185.704 151.626 186.235 150.286 186.235C148.946 186.235 147.661 185.704 146.711 184.759C145.761 183.814 145.224 182.531 145.217 181.191V173.327Z" fill="#273246"/>
<path d="M126.54 215.65V222.186C126.541 222.525 126.676 222.849 126.915 223.089C127.153 223.329 127.477 223.466 127.816 223.468H173.04C173.379 223.467 173.704 223.331 173.943 223.091C174.182 222.85 174.316 222.525 174.316 222.186V215.65H126.54Z" fill="#3F3D56"/>
<path d="M51.9855 47.9167V171.675C51.9867 173.252 52.6138 174.764 53.729 175.879C54.8442 176.994 56.3563 177.621 57.9335 177.623H241.33C242.907 177.621 244.419 176.994 245.534 175.879C246.65 174.764 247.277 173.252 247.278 171.675V47.9167C247.274 46.341 246.646 44.8309 245.531 43.7173C244.416 42.6037 242.906 41.9773 241.33 41.9753H57.9335C56.3577 41.9773 54.847 42.6038 53.7321 43.7174C52.6173 44.831 51.9892 46.341 51.9855 47.9167Z" fill="#273246"/>
<path d="M56.2878 49.4565V170.148C56.2893 170.991 56.6247 171.798 57.2205 172.394C57.8163 172.99 58.6241 173.325 59.4667 173.327H239.803C240.646 173.325 241.454 172.99 242.049 172.394C242.645 171.798 242.981 170.991 242.982 170.148V49.4565C242.982 48.6128 242.647 47.8036 242.051 47.2064C241.455 46.6093 240.647 46.2728 239.803 46.271H59.4667C58.623 46.2728 57.8146 46.6093 57.2186 47.2064C56.6227 47.8036 56.2879 48.6128 56.2878 49.4565Z" fill="white"/>
<path d="M89.7552 223.026C89.9388 223.256 90.1721 223.441 90.4376 223.568C90.7032 223.695 90.9941 223.761 91.2885 223.759H198.577C198.87 223.759 199.16 223.693 199.425 223.567C199.69 223.44 199.923 223.256 200.108 223.029C200.293 222.801 200.424 222.534 200.493 222.249C200.562 221.964 200.567 221.667 200.507 221.38L198.841 213.469C198.772 213.146 198.624 212.846 198.409 212.596C198.194 212.345 197.92 212.153 197.612 212.035C197.389 211.947 197.151 211.903 196.912 211.903H92.9473C92.7076 211.903 92.47 211.947 92.2468 212.035C91.9385 212.153 91.6646 212.345 91.4499 212.596C91.2352 212.846 91.0865 213.146 91.0175 213.469L89.3521 221.38C89.2928 221.667 89.2983 221.964 89.368 222.248C89.4377 222.533 89.57 222.798 89.7552 223.026Z" fill="#273246"/>
<path d="M233.951 62.8968H65.2105C65.0352 62.8929 64.8683 62.8205 64.7456 62.6951C64.6229 62.5697 64.5543 62.4012 64.5543 62.2258C64.5543 62.0503 64.6229 61.8819 64.7456 61.7565C64.8683 61.6311 65.0352 61.5586 65.2105 61.5547H233.951C234.126 61.5586 234.293 61.6311 234.416 61.7565C234.538 61.8819 234.607 62.0503 234.607 62.2258C234.607 62.4012 234.538 62.5697 234.416 62.6951C234.293 62.8205 234.126 62.8929 233.951 62.8968V62.8968Z" fill="#3F3D56"/>
<path d="M76.697 58.1286C78.8689 58.1286 80.6295 56.3287 80.6295 54.1083C80.6295 51.888 78.8689 50.0881 76.697 50.0881C74.5251 50.0881 72.7644 51.888 72.7644 54.1083C72.7644 56.3287 74.5251 58.1286 76.697 58.1286Z" fill="#3F3D56"/>
<path d="M90.2822 58.1286C92.4541 58.1286 94.2147 56.3287 94.2147 54.1083C94.2147 51.888 92.4541 50.0881 90.2822 50.0881C88.1103 50.0881 86.3496 51.888 86.3496 54.1083C86.3496 56.3287 88.1103 58.1286 90.2822 58.1286Z" fill="#3F3D56"/>
<path d="M103.867 58.1286C106.039 58.1286 107.8 56.3287 107.8 54.1083C107.8 51.888 106.039 50.0881 103.867 50.0881C101.695 50.0881 99.9348 51.888 99.9348 54.1083C99.9348 56.3287 101.695 58.1286 103.867 58.1286Z" fill="#3F3D56"/>
<path d="M225.77 51.0823H216.121C215.931 51.0868 215.749 51.1657 215.616 51.3021C215.482 51.4386 215.408 51.6218 215.408 51.8126C215.408 52.0034 215.482 52.1866 215.616 52.3231C215.749 52.4596 215.931 52.5385 216.121 52.5429H225.77C225.962 52.5402 226.145 52.4621 226.28 52.3254C226.415 52.1887 226.49 52.0045 226.49 51.8126C226.49 51.6207 226.415 51.4365 226.28 51.2998C226.145 51.1632 225.962 51.085 225.77 51.0823Z" fill="#3F3D56"/>
<path d="M225.77 53.825H216.121C215.93 53.8292 215.749 53.908 215.615 54.0445C215.482 54.181 215.407 54.3644 215.407 54.5553C215.407 54.7462 215.482 54.9296 215.615 55.0661C215.749 55.2026 215.93 55.2813 216.121 55.2856H225.77C225.962 55.2833 226.146 55.2053 226.281 55.0686C226.416 54.9319 226.492 54.7475 226.492 54.5553C226.492 54.3631 226.416 54.1787 226.281 54.042C226.146 53.9053 225.962 53.8273 225.77 53.825V53.825Z" fill="#3F3D56"/>
<path d="M225.77 56.5677H216.121C215.931 56.5721 215.749 56.651 215.616 56.7875C215.482 56.924 215.408 57.1072 215.408 57.298C215.408 57.4888 215.482 57.672 215.616 57.8084C215.749 57.9449 215.931 58.0238 216.121 58.0282H225.77C225.962 58.0255 226.145 57.9474 226.28 57.8107C226.415 57.6741 226.49 57.4899 226.49 57.298C226.49 57.1061 226.415 56.9218 226.28 56.7852C226.145 56.6485 225.962 56.5704 225.77 56.5677V56.5677Z" fill="#3F3D56"/>
<path d="M458.389 218.519C458.68 219.366 459.233 220.1 459.967 220.614C460.701 221.129 461.579 221.397 462.476 221.381L479.984 220.93C480.886 220.913 481.759 220.604 482.472 220.049C483.184 219.494 483.698 218.724 483.936 217.853L486.414 191.359C487.293 191.758 488.25 191.954 489.215 191.935C490.053 191.914 490.879 191.728 491.645 191.388C492.412 191.048 493.104 190.56 493.681 189.952C494.259 189.344 494.712 188.629 495.013 187.847C495.314 187.064 495.459 186.23 495.438 185.392C495.417 184.553 495.231 183.727 494.89 182.961C494.55 182.195 494.062 181.503 493.455 180.925C492.847 180.347 492.132 179.895 491.349 179.593C490.567 179.292 489.733 179.148 488.894 179.169C488.509 179.168 488.124 179.208 487.747 179.288C487.337 178.844 486.838 178.492 486.283 178.252C485.729 178.013 485.13 177.892 484.526 177.898L457.594 178.594C457.371 178.602 457.148 178.63 456.93 178.676C456.339 178.786 455.779 179.022 455.287 179.366C454.795 179.711 454.383 180.157 454.077 180.675C453.772 181.192 453.581 181.769 453.518 182.367C453.454 182.964 453.52 183.568 453.709 184.138L458.389 218.519ZM486.922 189.561L488.685 183.247C488.886 182.518 488.89 181.749 488.699 181.017C488.784 181.017 488.86 180.976 488.945 180.976C490.154 180.951 491.323 181.406 492.197 182.242C493.071 183.078 493.577 184.226 493.605 185.435C493.634 186.644 493.181 187.815 492.348 188.691C491.514 189.566 490.368 190.076 489.159 190.108C488.377 190.132 487.604 189.943 486.922 189.561Z" fill="#273246"/>
<path d="M456.93 178.676C457.504 181.957 463.954 184.263 471.711 183.862C478.844 183.534 484.676 181.029 485.745 178.061C485.349 177.944 484.938 177.889 484.526 177.898L457.594 178.594C457.371 178.602 457.148 178.63 456.93 178.676V178.676Z" fill="#343F54"/>
<path d="M473.133 203.96C473.168 203.951 473.202 203.937 473.232 203.916L477.035 201.428C477.081 201.398 477.118 201.357 477.145 201.309C477.171 201.26 477.184 201.206 477.184 201.152C477.184 201.097 477.171 201.043 477.145 200.994C477.119 200.946 477.081 200.905 477.035 200.875L473.083 198.287C473.047 198.263 473.006 198.246 472.963 198.238C472.921 198.23 472.877 198.23 472.834 198.239C472.792 198.247 472.751 198.264 472.715 198.289C472.679 198.313 472.648 198.345 472.624 198.381C472.601 198.417 472.584 198.458 472.576 198.501C472.568 198.544 472.569 198.587 472.577 198.63C472.586 198.673 472.604 198.713 472.628 198.749C472.653 198.785 472.684 198.815 472.721 198.839L476.251 201.151L472.871 203.364C472.805 203.406 472.757 203.471 472.735 203.546C472.713 203.621 472.718 203.701 472.749 203.773C472.781 203.845 472.836 203.903 472.907 203.937C472.977 203.971 473.057 203.98 473.133 203.96H473.133Z" fill="#F2F2F2"/>
<path d="M467.127 204.237C467.191 204.221 467.249 204.186 467.293 204.137C467.337 204.088 467.365 204.027 467.374 203.962C467.383 203.897 467.372 203.83 467.343 203.771C467.314 203.712 467.268 203.663 467.211 203.63L463.706 201.621L467.093 199.105C467.128 199.079 467.158 199.047 467.18 199.009C467.202 198.972 467.217 198.931 467.223 198.888C467.23 198.845 467.227 198.801 467.217 198.759C467.206 198.717 467.187 198.678 467.162 198.643C467.136 198.608 467.103 198.579 467.066 198.556C467.029 198.534 466.988 198.519 466.945 198.513C466.902 198.507 466.858 198.509 466.816 198.52C466.774 198.53 466.734 198.549 466.7 198.575L462.907 201.392C462.863 201.425 462.828 201.468 462.805 201.517C462.781 201.567 462.771 201.622 462.774 201.677C462.777 201.731 462.794 201.784 462.823 201.831C462.852 201.878 462.892 201.916 462.94 201.944L466.882 204.204C466.956 204.246 467.044 204.258 467.127 204.237V204.237Z" fill="#F2F2F2"/>
<path d="M472.755 206.141C472.787 206.133 472.817 206.12 472.845 206.103C472.882 206.081 472.914 206.051 472.94 206.016C472.966 205.981 472.984 205.941 472.995 205.899C473.005 205.857 473.007 205.813 473 205.77C472.993 205.727 472.978 205.686 472.956 205.649L467.566 196.788C467.52 196.713 467.447 196.659 467.362 196.639C467.276 196.618 467.187 196.632 467.112 196.678C467.037 196.723 466.983 196.797 466.963 196.882C466.942 196.967 466.956 197.057 467.001 197.132L472.391 205.993C472.428 206.053 472.483 206.1 472.548 206.127C472.614 206.154 472.686 206.159 472.755 206.141Z" fill="#F2F2F2"/>
<path d="M169.742 99.3776H140.537C139.346 99.3776 138.38 100.343 138.38 101.535V104.388C138.38 105.58 139.346 106.545 140.537 106.545H169.742C170.934 106.545 171.899 105.58 171.899 104.388V101.535C171.899 100.343 170.934 99.3776 169.742 99.3776Z" fill="#343F54"/>
<path d="M186.766 113.713H123.514C122.322 113.713 121.356 114.679 121.356 115.87V118.724C121.356 119.915 122.322 120.881 123.514 120.881H186.766C187.957 120.881 188.923 119.915 188.923 118.724V115.87C188.923 114.679 187.957 113.713 186.766 113.713Z" fill="#E6E6E6"/>
<path d="M186.766 128.049H123.514C122.322 128.049 121.356 129.015 121.356 130.206V133.059C121.356 134.251 122.322 135.217 123.514 135.217H186.766C187.957 135.217 188.923 134.251 188.923 133.059V130.206C188.923 129.015 187.957 128.049 186.766 128.049Z" fill="#E6E6E6"/>
<path d="M192.128 176.053L192.271 176.505L192.278 176.52L196.591 189.631L201.552 204.74L210.885 233.132L210.976 237.543V237.558L211.669 273.037L209.747 277.847L211.91 285.733C211.91 285.733 210.915 273.813 205.578 280.658C202.554 284.549 199.018 288.529 196.116 292.261C200.345 293.973 204.643 295.521 209.008 296.905C209.95 297.207 210.9 297.493 211.85 297.78C212.054 297.84 212.257 297.9 212.461 297.961C226.931 302.24 241.89 304.645 256.972 305.115C257.756 305.138 258.525 305.153 259.272 305.168C259.536 305.176 259.792 305.183 260.048 305.183C260.893 305.191 261.729 305.198 262.574 305.198C264.278 305.198 265.974 305.173 267.663 305.123C280.162 304.771 292.589 303.09 304.733 300.109C304.65 295.096 304.424 289.238 304.1 282.98C303.949 279.912 300.564 276.587 300.36 273.375C300.217 270.963 303.255 268.694 303.097 266.243C302.072 251.157 300.79 256.949 299.84 246.266C299.742 245.218 299.652 244.215 299.569 243.257C298.958 236.397 298.536 232.107 298.536 232.107L302.592 206.542L308.963 166.403L308.472 165.596L307.922 165.325L274.32 148.693L272.495 144.019C271.964 142.672 271.042 141.515 269.847 140.697C268.653 139.879 267.241 139.437 265.793 139.428L243.658 139.337C242.509 139.332 241.376 139.601 240.352 140.121C239.328 140.642 238.443 141.399 237.77 142.33L231.776 150.631L192.128 176.053Z" fill="#343F54"/>
<path d="M215.989 226.814L210.976 237.543L207.553 244.871L201.665 275.699L198.717 278.827L196.191 267.751L169.757 273.621C168.89 268.803 169.525 273.784 168.99 268.499C169.141 268.348 169.299 268.197 169.457 268.046C169.879 267.654 170.234 267.285 170.226 266.93C169.925 248.701 170.829 217.677 178.384 198.882C179.567 195.813 181.127 192.903 183.028 190.219C183.179 190.016 183.322 189.812 183.465 189.608C186.948 184.731 189.15 179.928 192.271 176.513V176.505C192.29 176.49 192.308 176.472 192.324 176.453C192.335 176.447 192.345 176.439 192.354 176.43L213.795 165.061L214.715 190.905L215.371 209.482L215.989 226.814Z" fill="#343F54"/>
<path d="M293.303 229.862L299.566 243.261L301.751 247.927L307.638 278.752L310.576 281.873L313.108 270.8L314.297 270.556L335.748 266.113L342.001 285.971C343.41 283.623 343.965 280.86 343.572 278.15C343.18 275.44 341.863 272.948 339.845 271.097C339.419 270.711 339.063 270.335 339.073 269.979C339.429 248.537 338.117 209.386 326.273 193.272C322.512 188.158 320.255 183.065 316.971 179.507C316.961 179.497 316.961 179.486 316.951 179.486L308.96 166.402L308.472 165.599L307.923 165.324L293.303 229.862Z" fill="#343F54"/>
<path d="M255.365 133.038C271.629 133.038 284.813 119.853 284.813 103.59C284.813 87.3259 271.629 74.1416 255.365 74.1416C239.101 74.1416 225.917 87.3259 225.917 103.59C225.917 119.853 239.101 133.038 255.365 133.038Z" fill="#FFB6B6"/>
<path d="M295.167 83.0204C294.939 82.7765 294.664 82.5812 294.359 82.4461C294.053 82.3109 293.724 82.2388 293.39 82.2339L293.832 81.0047C293.977 80.6175 294.016 80.1988 293.945 79.7916C293.875 79.3844 293.697 79.0032 293.431 78.6871C293.165 78.3711 292.819 78.1315 292.43 77.9929C292.041 77.8543 291.621 77.8217 291.215 77.8985L289.603 78.2091L289.755 77.1319C289.813 76.7306 289.766 76.3212 289.618 75.9437C289.47 75.5663 289.226 75.2338 288.911 74.9791C288.595 74.7243 288.219 74.5561 287.819 74.4909C287.419 74.4257 287.009 74.4658 286.629 74.6073C286.283 74.7433 285.911 74.8003 285.541 74.774C285.17 74.7477 284.81 74.6388 284.487 74.4553C284.163 74.2774 283.882 74.0308 283.663 73.7329C283.443 73.435 283.292 73.0928 283.219 72.7303L282.657 70.0207L282.597 69.8753C279.861 65.3151 274.601 61.9975 268.164 60.7814C262.434 59.691 256.558 60.2461 250.895 60.7682C248.647 60.9797 246.11 61.2176 243.995 62.513C242.197 63.6233 240.677 65.8439 240.988 68.0843C235.403 66.3726 229.416 69.7893 226.448 74.0983C222.932 79.2268 222.357 85.6507 222.265 90.6734C222.014 102.556 224.466 112.278 229.535 119.574C229.905 120.103 229.997 121.206 230.731 121.577L230.579 121.332C231.398 121.742 232.231 122.403 231.92 123.11C231.028 125.145 236.956 129.646 241.133 131.133C248.753 133.849 258.885 133.618 266.009 132.64L266.26 130.955C268.831 130.604 270.642 129.937 271.151 128.893C272.05 128.126 272.816 127.439 273.484 126.804L273.49 126.798C273.504 126.784 273.53 126.765 273.543 126.751C276.762 123.665 277.508 121.907 277.846 119.23C278.169 116.607 277.594 113.943 277.006 111.544C289.391 113.461 272.129 98.353 283.668 95.4319C283.8 95.3911 283.935 95.358 284.071 95.3327C284.408 95.2534 284.745 95.1741 285.069 95.0816C286.63 94.6579 288.125 94.0195 289.51 93.1848C292.735 91.222 293.799 88.6181 295.465 85.6838C295.705 85.2659 295.806 84.7824 295.752 84.3033C295.699 83.8243 295.494 83.3749 295.167 83.0204Z" fill="#273246"/>
<path d="M359.518 231.958C359.511 233.115 359.498 234.734 359.445 236.736C359.439 237.014 359.432 237.298 359.425 237.589C359.34 241.27 359.254 244.356 359.115 247.786C359.108 248.024 359.102 248.256 359.088 248.494C358.903 253.278 358.613 258.85 358.11 267.673C357.178 283.97 355.553 269.913 353.92 275.63C353.841 275.914 353.755 276.251 353.676 276.647C353.429 278.086 353.011 279.49 352.433 280.831C351.568 281.346 350.675 281.842 349.796 282.338C347.292 283.732 344.747 285.074 342.183 286.349C340.742 287.063 339.295 287.764 337.841 288.438C337.61 288.543 337.385 288.649 337.16 288.748C329.715 292.192 322.041 295.12 314.194 297.512C312.661 297.974 311.134 298.424 309.588 298.84C307.975 299.289 306.363 299.712 304.73 300.109C292.587 303.09 280.161 304.772 267.661 305.125C265.976 305.178 264.277 305.198 262.572 305.198C261.726 305.198 260.894 305.191 260.048 305.185C259.79 305.185 259.532 305.178 259.275 305.171C258.528 305.152 257.754 305.138 256.975 305.118C241.892 304.648 226.933 302.243 212.464 297.961L211.849 297.783C210.898 297.492 209.952 297.208 209.007 296.904C204.646 295.522 200.348 293.976 196.113 292.264C192.882 290.962 189.687 289.566 186.531 288.074C186.502 288.066 186.475 288.053 186.451 288.035C185.79 287.731 185.123 287.413 184.462 287.089C184.376 287.043 184.284 286.997 184.191 286.951C181.726 285.748 179.287 284.488 176.875 283.17C174.846 278.511 171.991 277.619 170.22 273.521C169.704 272.304 169.332 271.031 169.11 269.728C169.11 269.715 169.103 269.701 169.103 269.682C169.288 272.14 168.317 265.32 169.096 269.655C169.09 269.576 169.083 269.49 169.077 269.391C169.057 269.153 169.03 268.862 168.991 268.499C166.724 246.366 166.869 221.054 165.884 200.196C165.818 198.848 165.75 197.557 165.68 196.323C165.66 195.913 165.633 195.51 165.607 195.114C165.653 194.995 165.706 194.869 165.765 194.75C165.778 194.716 165.794 194.683 165.812 194.651C165.831 194.61 165.853 194.57 165.878 194.532C165.891 194.512 165.911 194.486 165.924 194.466C165.934 194.443 165.945 194.421 165.957 194.4C166.017 194.307 166.083 194.208 166.155 194.116C166.188 194.076 166.215 194.043 166.248 194.01C166.271 193.976 166.297 193.945 166.327 193.917C166.348 193.886 166.372 193.857 166.4 193.832C166.426 193.805 166.453 193.772 166.486 193.739C166.5 193.718 166.518 193.7 166.539 193.686C166.591 193.626 166.648 193.571 166.711 193.521C166.946 193.304 167.198 193.105 167.464 192.926C167.556 192.867 167.656 192.807 167.748 192.741C168.414 192.343 169.115 192.006 169.843 191.737C170.094 191.644 170.345 191.558 170.616 191.466C170.716 191.439 170.808 191.406 170.907 191.373C171.053 191.327 171.198 191.281 171.35 191.247C172.103 191.023 172.916 190.831 173.795 190.653C173.901 190.633 174.013 190.613 174.126 190.587C174.284 190.554 174.45 190.527 174.615 190.501C174.839 190.461 175.071 190.421 175.302 190.382C177.265 190.071 179.492 189.84 181.951 189.688C182.182 189.675 182.413 189.661 182.645 189.648C182.916 189.635 183.186 189.622 183.464 189.608C183.695 189.595 183.933 189.589 184.171 189.582C184.403 189.569 184.64 189.562 184.885 189.556C185.552 189.536 186.24 189.516 186.94 189.503C188.936 189.463 191.038 189.476 193.245 189.523C194.27 189.549 195.314 189.575 196.384 189.622C196.457 189.622 196.523 189.628 196.589 189.628C197.521 189.661 198.46 189.701 199.425 189.754C200.099 189.787 200.779 189.82 201.46 189.86C202.101 189.899 202.749 189.939 203.403 189.985C203.912 190.012 204.421 190.051 204.936 190.084C205.372 190.117 205.809 190.15 206.245 190.177L206.84 190.216C207.163 190.243 207.487 190.263 207.818 190.296C208.545 190.355 209.272 190.415 210.012 190.474C210.746 190.54 211.492 190.606 212.239 190.673C212.986 190.739 213.739 190.811 214.493 190.884C214.572 190.891 214.645 190.897 214.717 190.904C215.405 190.977 216.092 191.043 216.786 191.115C216.945 191.129 217.11 191.142 217.268 191.162C217.93 191.228 218.605 191.306 219.272 191.377C219.477 191.399 219.681 191.42 219.887 191.443C220.41 191.5 220.925 191.549 221.452 191.611C222.146 191.69 222.853 191.763 223.54 191.855C224.076 191.915 224.611 191.974 225.146 192.041C225.986 192.14 226.838 192.245 227.691 192.358C228.014 192.397 228.338 192.437 228.662 192.483C231.094 192.787 233.553 193.124 236.051 193.475C239.838 194.01 243.684 194.592 247.557 195.219C251.436 195.847 255.338 196.51 259.261 197.209C260.253 197.387 261.244 197.566 262.242 197.751C262.691 197.836 263.141 197.922 263.59 198.008C264.357 198.147 265.123 198.293 265.89 198.438C266.657 198.583 267.423 198.729 268.19 198.881C269.102 199.059 270.02 199.238 270.933 199.416C276.94 200.606 282.914 201.875 288.743 203.203C289.702 203.421 290.66 203.646 291.612 203.864C293.515 204.307 295.401 204.756 297.269 205.212C297.784 205.331 298.293 205.457 298.802 205.582C300.071 205.899 301.34 206.217 302.589 206.54L302.807 206.6C303.726 206.825 304.625 207.056 305.523 207.294C307.645 207.849 309.731 208.411 311.782 208.979C313.143 209.356 314.489 209.737 315.82 210.122C317.809 210.697 319.759 211.279 321.656 211.867C322.125 212.013 322.594 212.158 323.057 212.297C324.445 212.726 325.813 213.162 327.141 213.599C328.198 213.942 329.229 214.293 330.247 214.643C331.265 214.993 332.263 215.343 333.241 215.694C333.869 215.918 334.49 216.156 335.111 216.381C336.004 216.711 336.883 217.042 337.742 217.372C338.006 217.471 338.264 217.577 338.522 217.676C338.687 217.749 338.845 217.809 339.004 217.875C339.315 218 339.632 218.119 339.936 218.245C340.246 218.364 340.55 218.489 340.854 218.621C341.152 218.74 341.456 218.866 341.747 218.992C342.044 219.11 342.335 219.236 342.626 219.368C342.87 219.467 343.108 219.573 343.339 219.679C343.809 219.884 344.278 220.089 344.734 220.3C344.959 220.406 345.183 220.505 345.408 220.611L345.924 220.849C345.996 220.888 346.069 220.921 346.142 220.954C346.307 221.034 346.479 221.12 346.644 221.199C347.027 221.377 347.404 221.569 347.774 221.747C348.27 221.999 348.752 222.25 349.215 222.494C349.684 222.745 350.14 222.997 350.576 223.241C350.649 223.281 350.715 223.32 350.788 223.36C350.887 223.413 350.986 223.472 351.085 223.525C351.422 223.717 351.746 223.915 352.07 224.107C352.704 224.497 353.306 224.88 353.867 225.263C353.993 225.349 354.112 225.435 354.237 225.514C354.654 225.812 355.05 226.103 355.42 226.4C355.42 226.407 355.42 226.407 355.427 226.407C355.553 226.499 355.672 226.598 355.791 226.691C355.89 226.783 355.995 226.863 356.095 226.955C356.438 227.253 356.755 227.537 357.046 227.828C357.144 227.917 357.236 228.012 357.324 228.112C357.362 228.144 357.398 228.179 357.43 228.217C357.562 228.35 357.681 228.482 357.793 228.614C357.81 228.632 357.826 228.652 357.839 228.673C357.998 228.859 358.143 229.044 358.282 229.229C358.348 229.321 358.421 229.414 358.48 229.506C358.56 229.619 358.639 229.738 358.705 229.85C358.765 229.942 358.817 230.042 358.87 230.134C359.011 230.372 359.13 230.622 359.227 230.881C359.301 231.056 359.361 231.238 359.406 231.423C359.456 231.598 359.493 231.777 359.518 231.958Z" fill="#343F54"/>
<path opacity="0.2" d="M359.518 231.958C359.511 233.115 359.498 234.734 359.445 236.736C359.439 237.014 359.425 237.298 359.419 237.589C359.353 240.398 359.254 243.867 359.115 247.786C359.108 248.024 359.102 248.256 359.088 248.493C358.903 253.278 358.613 258.85 358.11 267.672C357.178 283.97 355.553 269.913 353.92 275.63C349.387 272.841 344.417 269.919 339.103 266.919C338.145 266.377 337.178 265.833 336.202 265.287C325.575 259.359 313.705 253.146 301.314 246.993C300.825 246.749 300.329 246.504 299.84 246.266C271.455 232.236 240.472 218.588 215.372 209.481C210.527 207.723 205.901 206.137 201.553 204.743C192.393 201.815 184.475 199.766 178.382 198.881C172.037 197.955 167.656 198.286 165.884 200.196C165.818 198.848 165.75 197.557 165.68 196.323C165.653 195.913 165.627 195.51 165.6 195.114C165.641 195.005 165.694 194.901 165.745 194.796C165.753 194.781 165.758 194.765 165.765 194.75C165.778 194.716 165.794 194.683 165.812 194.651C165.831 194.61 165.853 194.57 165.878 194.532C165.899 194.485 165.926 194.441 165.957 194.4C166.017 194.307 166.083 194.208 166.155 194.116C166.209 194.046 166.266 193.98 166.327 193.917C166.347 193.886 166.372 193.857 166.4 193.831C166.426 193.805 166.453 193.772 166.486 193.739C166.5 193.718 166.518 193.7 166.539 193.686C166.591 193.626 166.648 193.571 166.711 193.521C166.946 193.304 167.198 193.105 167.464 192.926C167.556 192.867 167.656 192.807 167.748 192.741C168.414 192.343 169.115 192.006 169.843 191.736C170.094 191.644 170.345 191.558 170.616 191.465C170.715 191.439 170.808 191.406 170.907 191.373C171.053 191.327 171.198 191.28 171.35 191.247C172.103 191.023 172.916 190.831 173.795 190.653C174.06 190.6 174.337 190.547 174.615 190.501C174.839 190.461 175.071 190.421 175.302 190.382C177.265 190.071 179.492 189.84 181.951 189.688C182.182 189.674 182.413 189.661 182.645 189.648C182.915 189.635 183.186 189.622 183.464 189.608C183.695 189.595 183.933 189.589 184.171 189.582C184.402 189.569 184.64 189.562 184.885 189.555C185.552 189.536 186.24 189.516 186.94 189.503C188.936 189.47 191.038 189.483 193.245 189.529C194.27 189.549 195.314 189.582 196.384 189.628C196.45 189.628 196.523 189.635 196.589 189.635C197.521 189.661 198.466 189.707 199.424 189.754C200.099 189.787 200.779 189.82 201.46 189.859C202.101 189.899 202.749 189.939 203.403 189.985C203.912 190.011 204.421 190.051 204.936 190.084C205.372 190.117 205.809 190.15 206.245 190.177C206.767 190.216 207.289 190.256 207.818 190.296C208.545 190.355 209.272 190.415 210.012 190.474C210.745 190.54 211.492 190.606 212.239 190.672C212.986 190.738 213.739 190.811 214.493 190.884C214.572 190.89 214.645 190.897 214.717 190.904C215.405 190.976 216.092 191.042 216.786 191.115C220.632 191.505 224.591 191.961 228.662 192.483C231.094 192.794 233.557 193.126 236.051 193.481C239.838 194.016 243.684 194.598 247.557 195.219C251.436 195.847 255.338 196.51 259.261 197.209C260.253 197.387 261.244 197.565 262.242 197.75C263.458 197.975 264.674 198.204 265.89 198.438C266.657 198.583 267.423 198.729 268.19 198.881C269.102 199.059 270.021 199.237 270.933 199.416C276.94 200.606 282.914 201.874 288.744 203.203C289.702 203.421 290.66 203.646 291.612 203.864C293.515 204.306 295.401 204.756 297.269 205.212C297.784 205.337 298.293 205.463 298.802 205.589C300.078 205.906 301.34 206.223 302.589 206.54V206.547C302.662 206.56 302.734 206.58 302.807 206.6C303.719 206.831 304.625 207.062 305.523 207.3C307.645 207.855 309.731 208.415 311.782 208.979C313.143 209.362 314.492 209.739 315.82 210.122C317.809 210.704 319.759 211.285 321.656 211.867C322.125 212.012 322.594 212.158 323.057 212.297C324.445 212.733 325.806 213.167 327.141 213.599C328.199 213.942 329.229 214.293 330.247 214.643C331.265 214.993 332.263 215.343 333.241 215.694C333.876 215.918 334.497 216.15 335.111 216.374C336.01 216.705 336.883 217.035 337.742 217.372C338.006 217.471 338.264 217.577 338.522 217.676C339.004 217.861 339.473 218.053 339.936 218.245C340.246 218.364 340.551 218.489 340.855 218.621C341.152 218.74 341.456 218.866 341.747 218.991C342.044 219.11 342.335 219.236 342.626 219.368C342.87 219.467 343.108 219.573 343.339 219.679C343.809 219.884 344.278 220.089 344.734 220.3C344.959 220.406 345.183 220.505 345.408 220.611L345.924 220.849C345.996 220.888 346.069 220.921 346.142 220.954C346.703 221.219 347.245 221.483 347.774 221.747C348.27 221.998 348.752 222.25 349.215 222.494C349.763 222.785 350.285 223.069 350.788 223.36C350.887 223.413 350.986 223.472 351.085 223.525C351.422 223.717 351.746 223.915 352.07 224.107C352.704 224.497 353.306 224.88 353.867 225.263C354.423 225.647 354.938 226.023 355.42 226.4C355.42 226.407 355.42 226.407 355.427 226.407C355.658 226.592 355.883 226.777 356.095 226.955C356.438 227.252 356.755 227.537 357.046 227.827C357.144 227.917 357.236 228.012 357.324 228.112C357.362 228.144 357.398 228.179 357.43 228.217C357.568 228.369 357.707 228.521 357.839 228.673C357.998 228.858 358.143 229.044 358.282 229.229C358.348 229.321 358.421 229.414 358.48 229.506C358.56 229.618 358.639 229.737 358.705 229.85C358.765 229.942 358.817 230.041 358.87 230.134C359.011 230.372 359.13 230.622 359.227 230.881C359.3 231.057 359.359 231.238 359.406 231.423C359.456 231.598 359.493 231.777 359.518 231.958Z" fill="#090E16"/>
</svg>
